<?xml version="1.0" encoding="utf-8" standalone="no"?><!DOCTYPE svg PUBLIC "-//W3C//DTD SVG 20010904//EN" "http://www.w3.org/TR/2001/REC-SVG-20010904/DTD/svg10.dtd"><svg xmlns="http://www.w3.org/2000/svg" width="1817" height="325" xmlns:xlink="http://www.w3.org/1999/xlink"><source><![CDATA[participant AppComponent
participant DynamicFormComponent
participant DynamicFormQuestionComponent

AppComponent->DynamicFormComponent : Use the 'app-dynamic-form' template url \n and pass questions as array of object 
DynamicFormComponent->DynamicFormQuestionComponent: Convert the array of object of questions into the toFormGroup \n using QuestionControlService
Note right of DynamicFormQuestionComponent: It map the value such as formControlName, value, label etc.]]></source><desc></desc><defs><marker viewBox="0 0 5 5" markerWidth="5" markerHeight="5" orient="auto" refX="5" refY="2.5" id="markerArrowBlock"><path d="M 0 0 L 5 2.5 L 0 5 z"></path></marker><marker viewBox="0 0 9.6 16" markerWidth="4" markerHeight="16" orient="auto" refX="9.6" refY="8" id="markerArrowOpen"><path d="M 9.6,8 1.92,16 0,13.7 5.76,8 0,2.286 1.92,0 9.6,8 z"></path></marker></defs><g class="title"></g><g class="actor"><path d="M10,20C141.4,26.3 56.7,13.7 166.5,20.0C168.2,52.7 164.7,35.6 166.5,63.0C93.3,69.3 125.1,56.7 10.0,63.0C11.7,47.6 8.3,27.1 10.0,20.0" stroke="#000000" fill="#ffffff" style="stroke-width: 2;"></path><text x="21" y="45" style="font-size: 16px; font-family: danielbd;"><tspan x="20">AppComponent</tspan></text></g><g class="actor"><path d="M10,262.40625C125.5,268.7 127.2,256.1 166.5,262.4C164.7,286.8 168.2,281.3 166.5,305.4C35.0,299.1 136.7,311.7 10.0,305.4C11.7,269.3 8.3,272.7 10.0,262.4" stroke="#000000" fill="#ffffff" style="stroke-width: 2;"></path><text x="21" y="287.40625" style="font-size: 16px; font-family: danielbd;"><tspan x="20">AppComponent</tspan></text></g><path d="M88.2,63.0C96.2,230.5 80.3,156.4 88.2,262.4" stroke="#000000" fill="none" style="stroke-width: 2;"></path><g class="actor"><path d="M344.8828125,20C490.6,10.4 406.3,29.6 585.3,20.0C583.6,48.1 587.0,37.5 585.3,63.0C402.6,53.4 434.5,72.6 344.9,63.0C343.2,50.2 346.6,48.4 344.9,20.0" stroke="#000000" fill="#ffffff" style="stroke-width: 2;"></path><text x="355.8828125" y="44" style="font-size: 16px; font-family: danielbd;"><tspan x="354.8828125">DynamicFormComponent</tspan></text></g><g class="actor"><path d="M344.8828125,262.40625C479.8,272.0 435.4,252.8 585.3,262.4C587.0,283.8 583.6,284.5 585.3,305.4C402.6,295.8 502.1,315.0 344.9,305.4C346.6,294.0 343.2,298.5 344.9,262.4" stroke="#000000" fill="#ffffff" style="stroke-width: 2;"></path><text x="355.8828125" y="286.40625" style="font-size: 16px; font-family: danielbd;"><tspan x="354.8828125">DynamicFormComponent</tspan></text></g><path d="M465.1,63.0C473.1,94.9 457.1,177.5 465.1,262.4" stroke="#000000" fill="none" style="stroke-width: 2;"></path><g class="actor"><path d="M898.6171875,20C949.0,7.4 974.3,32.6 1213.8,20.0C1215.5,34.3 1212.0,26.9 1213.8,63.0C1163.3,75.6 1041.0,50.4 898.6,63.0C896.9,56.1 900.3,37.7 898.6,20.0" stroke="#000000" fill="#ffffff" style="stroke-width: 2;"></path><text x="909.6171875" y="44" style="font-size: 16px; font-family: danielbd;"><tspan x="908.6171875">DynamicFormQuestionComponent</tspan></text></g><g class="actor"><path d="M898.6171875,262.40625C1068.9,275.0 1062.0,249.8 1213.8,262.4C1215.5,278.4 1212.0,269.3 1213.8,305.4C958.9,292.8 974.3,318.0 898.6,305.4C896.9,270.7 900.3,272.7 898.6,262.4" stroke="#000000" fill="#ffffff" style="stroke-width: 2;"></path><text x="909.6171875" y="286.40625" style="font-size: 16px; font-family: danielbd;"><tspan x="908.6171875">DynamicFormQuestionComponent</tspan></text></g><path d="M1056.2,63.0C1064.2,127.4 1048.2,94.9 1056.2,262.4" stroke="#000000" fill="none" style="stroke-width: 2;"></path><g class="signal"><text x="99.234375" y="81.3984375" style="font-size: 16px; font-family: danielbd;"><tspan x="98.234375">Use the 'app-dynamic-form' template url</tspan><tspan dy="1.2em" x="98.234375">and pass questions as array of object</tspan></text><path d="M88.2,126.2C323.7,111.1 374.6,141.3 465.1,126.2" stroke="#000000" fill="none" style="stroke-width: 2; marker-end: url(&quot;#markerArrowBlock&quot;);"></path></g><g class="signal"><text x="476.09375" y="144.6015625" style="font-size: 16px; font-family: danielbd;"><tspan x="475.09375">Convert the array of object of questions into the toFormGroup</tspan><tspan dy="1.2em" x="475.09375">using QuestionControlService</tspan></text><path d="M465.1,189.4C913.9,165.8 914.3,213.1 1056.2,189.4" stroke="#000000" fill="none" style="stroke-width: 2; marker-end: url(&quot;#markerArrowBlock&quot;);"></path></g><g class="note"><path d="M1076.1875,209.40625C1204.4,188.0 1307.2,230.8 1610.3,209.4C1611.6,237.1 1609.0,217.7 1610.3,242.4C1344.0,263.8 1385.4,221.0 1076.2,242.4C1077.5,230.5 1074.9,227.1 1076.2,209.4" stroke="#000000" fill="#ffffff" style="stroke-width: 2;"></path><text x="1082.1875" y="229.40625" style="font-size: 16px; font-family: danielbd;"><tspan x="1081.1875">It map the value such as formControlName, value, label etc.</tspan></text></g></svg>